<?xml version="1.0" encoding="UTF-8"?>
<svg version="1.1" xmlns="http://www.w3.org/2000/svg" width="225" height="225">
<path d="M0 0 C0.83770117 0.24377963 0.83770117 0.24377963 1.69232559 0.49248409 C4.17765057 1.03906985 6.37884378 1.12298407 8.92279053 1.12025452 C9.91274521 1.12162918 10.90269989 1.12300385 11.9226532 1.12442017 C13.54213615 1.11902725 13.54213615 1.11902725 15.19433594 1.11352539 C16.3360878 1.11367142 17.47783966 1.11381744 18.65419006 1.1139679 C22.43093765 1.11327081 26.20763602 1.10548787 29.984375 1.09765625 C32.60182671 1.09579135 35.21927877 1.09436779 37.83673096 1.09336853 C44.02377572 1.09026154 50.2108028 1.08205667 56.39783978 1.07201904 C63.44253607 1.06083828 70.48723321 1.0553425 77.53193617 1.05032361 C92.0212999 1.03987354 106.5106497 1.02228632 121 1 C116.93892297 9.16286105 116.93892297 9.16286105 114 11 C108.95804448 11.86360059 103.94844951 11.69768837 98.85546875 11.5859375 C97.36047572 11.57473938 95.86546059 11.56620209 94.37043762 11.56021118 C90.44567502 11.53736031 86.52225609 11.47847267 82.59802246 11.4119873 C78.58962175 11.35048199 74.58100274 11.32317878 70.57226562 11.29296875 C62.71422881 11.22872289 54.8572818 11.12639213 47 11 C46.94376465 11.69399902 46.8875293 12.38799805 46.82958984 13.10302734 C46.32694484 18.99878128 45.64923269 24.79841809 44.625 30.625 C44.49561035 31.37918213 44.3662207 32.13336426 44.23291016 32.91040039 C43.96266993 34.48017338 43.69036545 36.04959237 43.41601562 37.61865234 C42.99611386 40.02224496 42.58352288 42.42701265 42.171875 44.83203125 C41.90667285 46.3672606 41.64106293 47.90241959 41.375 49.4375 C41.25205566 50.15309082 41.12911133 50.86868164 41.00244141 51.60595703 C40.49443724 54.49772693 39.93022908 57.20931277 39 60 C49.89 60 60.78 60 72 60 C67.90568079 68.18863841 67.90568079 68.18863841 65 70 C60.08095943 70.78454214 55.21059013 70.60808344 50.25 70.4375 C48.88415392 70.41596128 47.51826365 70.39705411 46.15234375 70.38085938 C36.19573653 70.19573653 36.19573653 70.19573653 35 69 C34.90623947 67.18944975 34.8825589 65.37522799 34.88647461 63.56225586 C34.88655014 62.40112778 34.88662567 61.23999969 34.88670349 60.04368591 C34.89186478 58.780168 34.89702606 57.51665009 34.90234375 56.21484375 C34.9037587 54.92888809 34.90517365 53.64293243 34.90663147 52.31800842 C34.91045582 48.89356557 34.92028538 45.46916491 34.93133545 42.04473877 C34.94155136 38.55261811 34.94612947 35.06049066 34.95117188 31.56835938 C34.96190773 24.71222222 34.97898316 17.85611313 35 11 C34.04041382 11.03311279 33.08082764 11.06622559 32.09216309 11.1003418 C28.91687676 11.20336831 25.7434633 11.27447721 22.56713867 11.32958984 C21.15963444 11.35960197 19.75231473 11.40042758 18.34545898 11.45263672 C5.14732143 11.92984694 5.14732143 11.92984694 0.53515625 7.9765625 C-0.30144531 6.99429688 -1.13804688 6.01203125 -2 5 C-1.34 3.35 -0.68 1.7 0 0 Z " fill="#EA312D" transform="translate(54,77)"/>
<path d="M0 0 C0.83770117 0.24377963 0.83770117 0.24377963 1.69232559 0.49248409 C4.17765057 1.03906985 6.37884378 1.12298407 8.92279053 1.12025452 C9.91274521 1.12162918 10.90269989 1.12300385 11.9226532 1.12442017 C13.54213615 1.11902725 13.54213615 1.11902725 15.19433594 1.11352539 C16.3360878 1.11367142 17.47783966 1.11381744 18.65419006 1.1139679 C22.43093765 1.11327081 26.20763602 1.10548787 29.984375 1.09765625 C32.60182671 1.09579135 35.21927877 1.09436779 37.83673096 1.09336853 C44.02377572 1.09026154 50.2108028 1.08205667 56.39783978 1.07201904 C63.44253607 1.06083828 70.48723321 1.0553425 77.53193617 1.05032361 C92.0212999 1.03987354 106.5106497 1.02228632 121 1 C116.93892297 9.16286105 116.93892297 9.16286105 114 11 C108.95804448 11.86360059 103.94844951 11.69768837 98.85546875 11.5859375 C97.36047572 11.57473938 95.86546059 11.56620209 94.37043762 11.56021118 C90.44567502 11.53736031 86.52225609 11.47847267 82.59802246 11.4119873 C78.58962175 11.35048199 74.58100274 11.32317878 70.57226562 11.29296875 C62.71422881 11.22872289 54.8572818 11.12639213 47 11 C47 10.67 47 10.34 47 10 C50.63 9.67 54.26 9.34 58 9 C57.34 7.68 56.68 6.36 56 5 C57.32 4.34 58.64 3.68 60 3 C47.44851633 2.88973558 34.91875561 2.9467748 22.375 3.4375 C21.32771729 3.47673584 20.28043457 3.51597168 19.20141602 3.55639648 C15.20605232 3.72633562 11.36284282 3.9395262 7.4140625 4.59765625 C5 5 5 5 3 4 C3 4.99 3 5.98 3 7 C7.10771216 7.7592217 11.06437738 8.16099961 15.23828125 8.28125 C16.38748047 8.31863281 17.53667969 8.35601562 18.72070312 8.39453125 C21.13474887 8.46541677 23.54881177 8.53572008 25.96289062 8.60546875 C27.67702148 8.66154297 27.67702148 8.66154297 29.42578125 8.71875 C30.47161377 8.74904297 31.51744629 8.77933594 32.5949707 8.81054688 C35 9 35 9 36 10 C36.09381302 11.84118029 36.11743954 13.68597641 36.11352539 15.52954102 C36.11344986 16.71068985 36.11337433 17.89183868 36.11329651 19.10877991 C36.10813522 20.3941716 36.10297394 21.67956329 36.09765625 23.00390625 C36.0962413 24.31205795 36.09482635 25.62020966 36.09336853 26.96800232 C36.0895441 30.45162859 36.07971446 33.93521339 36.06866455 37.41882324 C36.05844882 40.97126708 36.05387056 44.52371759 36.04882812 48.07617188 C36.03809212 55.05079832 36.0210166 62.02539717 36 69 C35.67 69 35.34 69 35 69 C35 49.86 35 30.72 35 11 C25.44121272 11.23651361 25.44121272 11.23651361 15.88452148 11.54052734 C4.85373264 11.6781994 4.85373264 11.6781994 0.53515625 7.9765625 C-0.30144531 6.99429688 -1.13804688 6.01203125 -2 5 C-1.34 3.35 -0.68 1.7 0 0 Z " fill="#F76A44" transform="translate(54,77)"/>
<path d="M0 0 C1.77206192 0.00015919 3.54412846 0.00585754 5.31616211 0.01586914 C6.24698105 0.01728409 7.17779999 0.01869904 8.13682556 0.02015686 C11.12241777 0.02577367 14.10793615 0.03832899 17.09350586 0.05102539 C19.11238499 0.05603823 21.13126529 0.06060151 23.15014648 0.06469727 C28.11046158 0.07574856 33.07072118 0.09302444 38.03100586 0.11352539 C34.86250795 6.51742596 34.86250795 6.51742596 32.03100586 9.11352539 C28.76215002 9.8118557 25.56337141 9.69520076 22.23413086 9.60180664 C21.28536072 9.5947319 20.33659058 9.58765717 19.35906982 9.58036804 C16.33224243 9.55240533 13.30727295 9.48966297 10.28100586 9.42602539 C8.22764718 9.40094497 6.17425947 9.37813135 4.12084961 9.35766602 C-0.90981288 9.30257233 -5.93908866 9.21628622 -10.96899414 9.11352539 C-9.9908039 7.80029751 -9.01141304 6.48796387 -8.03149414 5.17602539 C-7.4862207 4.44512695 -6.94094727 3.71422852 -6.37915039 2.96118164 C-4.21106508 0.12044936 -4.21106508 0.12044936 0 0 Z " fill="#FC583D" transform="translate(111.968994140625,107.886474609375)"/>
<path d="M0 0 C0.33 0 0.66 0 1 0 C0.88204476 1.45892004 0.75508849 2.91711177 0.625 4.375 C0.55539063 5.18710938 0.48578125 5.99921875 0.4140625 6.8359375 C-0.16481233 11.25941495 -1.12508794 15.62543971 -2 20 C8.89 20 19.78 20 31 20 C26.89806174 28.20387653 26.89806174 28.20387653 24 30 C19.05910372 30.75847431 14.16571443 30.56397842 9.1875 30.375 C7.81320906 30.34488122 6.43885501 30.31750872 5.06445312 30.29296875 C1.70803031 30.22230722 -1.64518065 30.12367705 -5 30 C-4.67 29.34 -4.34 28.68 -4 28 C-3.92805131 25.11629667 -3.90708292 22.25760336 -3.9375 19.375 C-3.94201172 18.57320312 -3.94652344 17.77140625 -3.95117188 16.9453125 C-3.96296832 14.96350994 -3.98090395 12.98174567 -4 11 C-3.34 11 -2.68 11 -2 11 C-1.93941406 10.37351562 -1.87882812 9.74703125 -1.81640625 9.1015625 C-1.73261719 8.28429687 -1.64882812 7.46703125 -1.5625 6.625 C-1.48128906 5.81289062 -1.40007812 5.00078125 -1.31640625 4.1640625 C-1 2 -1 2 0 0 Z " fill="#F44C38" transform="translate(95,117)"/>
<path d="M0 0 C0.83770117 0.24377963 0.83770117 0.24377963 1.69232559 0.49248409 C4.17765057 1.03906985 6.37884378 1.12298407 8.92279053 1.12025452 C9.91274521 1.12162918 10.90269989 1.12300385 11.9226532 1.12442017 C13.54213615 1.11902725 13.54213615 1.11902725 15.19433594 1.11352539 C16.3360878 1.11367142 17.47783966 1.11381744 18.65419006 1.1139679 C22.43093765 1.11327081 26.20763602 1.10548787 29.984375 1.09765625 C32.60182671 1.09579135 35.21927877 1.09436779 37.83673096 1.09336853 C44.02377572 1.09026154 50.2108028 1.08205667 56.39783978 1.07201904 C63.44253607 1.06083828 70.48723321 1.0553425 77.53193617 1.05032361 C92.0212999 1.03987354 106.5106497 1.02228632 121 1 C120.67 1.66 120.34 2.32 120 3 C119.00315689 2.99777939 118.00631378 2.99555878 116.97926331 2.99327087 C107.46570787 2.97277075 97.95215705 2.95790094 88.43858433 2.94818783 C83.5505994 2.94302598 78.66263267 2.93605435 73.7746582 2.92456055 C40.50703694 1.91364072 40.50703694 1.91364072 7.49047852 4.59741211 C5 5 5 5 3 4 C3 4.99 3 5.98 3 7 C7.10771216 7.7592217 11.06437738 8.16099961 15.23828125 8.28125 C16.38748047 8.31863281 17.53667969 8.35601562 18.72070312 8.39453125 C21.13474887 8.46541677 23.54881177 8.53572008 25.96289062 8.60546875 C27.67702148 8.66154297 27.67702148 8.66154297 29.42578125 8.71875 C30.47161377 8.74904297 31.51744629 8.77933594 32.5949707 8.81054688 C35 9 35 9 36 10 C36.09381302 11.84118029 36.11743954 13.68597641 36.11352539 15.52954102 C36.11344986 16.71068985 36.11337433 17.89183868 36.11329651 19.10877991 C36.10813522 20.3941716 36.10297394 21.67956329 36.09765625 23.00390625 C36.0962413 24.31205795 36.09482635 25.62020966 36.09336853 26.96800232 C36.0895441 30.45162859 36.07971446 33.93521339 36.06866455 37.41882324 C36.05844882 40.97126708 36.05387056 44.52371759 36.04882812 48.07617188 C36.03809212 55.05079832 36.0210166 62.02539717 36 69 C35.67 69 35.34 69 35 69 C35 49.86 35 30.72 35 11 C25.44121272 11.23651361 25.44121272 11.23651361 15.88452148 11.54052734 C4.85373264 11.6781994 4.85373264 11.6781994 0.53515625 7.9765625 C-0.30144531 6.99429688 -1.13804688 6.01203125 -2 5 C-1.34 3.35 -0.68 1.7 0 0 Z " fill="#F8BDAD" transform="translate(54,77)"/>
<path d="M0 0 C1.65 0 3.3 0 5 0 C4.67 1.32 4.34 2.64 4 4 C4.66 4 5.32 4 6 4 C6 2.68 6 1.36 6 0 C6.66 0 7.32 0 8 0 C7.37514309 9.78224261 5.68656475 19.35794117 4 29 C3.34 29 2.68 29 2 29 C1.34 32.63 0.68 36.26 0 40 C-0.66 40 -1.32 40 -2 40 C-2 27.46 -2 14.92 -2 2 C-1.34 2 -0.68 2 0 2 C0 1.34 0 0.68 0 0 Z " fill="#F8403E" transform="translate(93,88)"/>
<path d="M0 0 C1.73443359 0.00676758 1.73443359 0.00676758 3.50390625 0.01367188 C6.33599225 0.02537471 9.16796811 0.04177004 12 0.0625 C12 2.3725 12 4.6825 12 7.0625 C7.62449858 6.95223844 3.24982758 6.82169716 -1.125 6.6875 C-2.3625 6.6565625 -3.6 6.625625 -4.875 6.59375 C-6.07382813 6.55507812 -7.27265625 6.51640625 -8.5078125 6.4765625 C-10.15740967 6.42943115 -10.15740967 6.42943115 -11.84033203 6.38134766 C-15.14235634 6.04813457 -17.90132447 5.22603429 -21 4.0625 C-21 3.0725 -21 2.0825 -21 1.0625 C-13.97942879 -0.03016243 -7.09531697 -0.05282882 0 0 Z " fill="#FC673F" transform="translate(78,79.9375)"/>
<path d="M0 0 C0.33 0.99 0.66 1.98 1 3 C11.89 3 22.78 3 34 3 C29.89806174 11.20387653 29.89806174 11.20387653 27 13 C22.05910372 13.75847431 17.16571443 13.56397842 12.1875 13.375 C10.81320906 13.34488122 9.43885501 13.31750872 8.06445312 13.29296875 C4.70803031 13.22230722 1.35481935 13.12367705 -2 13 C-2 12.67 -2 12.34 -2 12 C7.24 12 16.48 12 26 12 C26 10.68 26 9.36 26 8 C25.01 8 24.02 8 23 8 C23 7.34 23 6.68 23 6 C20.59458071 4.79729036 18.89633409 4.79683337 16.2109375 4.68359375 C15.26992187 4.64169922 14.32890625 4.59980469 13.359375 4.55664062 C12.37453125 4.51732422 11.3896875 4.47800781 10.375 4.4375 C9.38242188 4.39431641 8.38984375 4.35113281 7.3671875 4.30664062 C4.91160162 4.20038931 2.45591297 4.09835036 0 4 C0 2.68 0 1.36 0 0 Z " fill="#F8A997" transform="translate(92,134)"/>
<path d="M0 0 C13.86 0 27.72 0 42 0 C38.76973267 6.46053466 38.76973267 6.46053466 36 9 C32.73114416 9.6983303 29.53236555 9.58167537 26.203125 9.48828125 C25.25435486 9.48120651 24.30558472 9.47413177 23.32806396 9.46684265 C20.30123657 9.43887994 17.27626709 9.37613758 14.25 9.3125 C12.19664132 9.28741957 10.14325361 9.26460596 8.08984375 9.24414062 C3.05918126 9.18904694 -1.97009452 9.10276083 -7 9 C-5 7 -5 7 -1.10107422 6.86474609 C0.58135236 6.90713211 2.26351768 6.96081217 3.9453125 7.0234375 C4.8303244 7.04846344 5.7153363 7.07348938 6.62716675 7.09927368 C9.46016056 7.18159455 12.29246968 7.27813677 15.125 7.375 C17.04294058 7.43322724 18.96090943 7.49053077 20.87890625 7.546875 C25.5863329 7.68719128 30.29319386 7.84026533 35 8 C35 6.68 35 5.36 35 4 C35.66 4 36.32 4 37 4 C36.505 3.01 36.505 3.01 36 2 C24.12 1.67 12.24 1.34 0 1 C0 0.67 0 0.34 0 0 Z " fill="#ED8C7C" transform="translate(108,108)"/>
<path d="M0 0 C4.95 0 9.9 0 15 0 C13.20047712 3.59904575 11.82678204 6.17606488 9 9 C5.97540283 9.60127258 5.97540283 9.60127258 2.39550781 9.56762695 C1.74143448 9.56835709 1.08736115 9.56908722 0.41346741 9.56983948 C-1.74083434 9.56636574 -3.89295282 9.52752245 -6.046875 9.48828125 C-7.5433026 9.47895217 -9.0397455 9.4718365 -10.53619385 9.46684265 C-14.46899812 9.44777974 -18.40087455 9.39868673 -22.33331299 9.34332275 C-26.34838306 9.29211401 -30.36360352 9.26932525 -34.37890625 9.24414062 C-42.25302929 9.19056581 -50.12639913 9.10526332 -58 9 C-58 8.67 -58 8.34 -58 8 C-36.22 8 -14.44 8 8 8 C8.33 6.68 8.66 5.36 9 4 C9.66 4 10.32 4 11 4 C10.505 3.01 10.505 3.01 10 2 C7.64400765 1.53248212 7.64400765 1.53248212 4.9375 1.375 C4.01839844 1.30023438 3.09929687 1.22546875 2.15234375 1.1484375 C1.08693359 1.07496094 1.08693359 1.07496094 0 1 C0 0.67 0 0.34 0 0 Z " fill="#F9927B" transform="translate(159,79)"/>
<path d="M0 0 C7.59 0 15.18 0 23 0 C19 3 19 3 17 3 C17.33 3.99 17.66 4.98 18 6 C23.28 6.33 28.56 6.66 34 7 C34 7.33 34 7.66 34 8 C25.09 8 16.18 8 7 8 C7.33 7.01 7.66 6.02 8 5 C8.99 4.67 9.98 4.34 11 4 C11 3.34 11 2.68 11 2 C7.37 1.67 3.74 1.34 0 1 C0 0.67 0 0.34 0 0 Z " fill="#EB493C" transform="translate(94,79)"/>
<path d="M0 0 C8.25 0 16.5 0 25 0 C25 2.31 25 4.62 25 7 C19.39 6.67 13.78 6.34 8 6 C11 4 11 4 14 4 C14 3.34 14 2.68 14 2 C7.07 1.505 7.07 1.505 0 1 C0 0.67 0 0.34 0 0 Z " fill="#F9784B" transform="translate(65,80)"/>
<path d="M0 0 C0.33 0.66 0.66 1.32 1 2 C0.34 3.32 -0.32 4.64 -1 6 C11.21 6 23.42 6 36 6 C36 6.33 36 6.66 36 7 C22.8 7 9.6 7 -4 7 C-2 2 -2 2 0 0 Z " fill="#E95943" transform="translate(107,109)"/>
<path d="M0 0 C1.0415625 0.31710938 2.083125 0.63421875 3.15625 0.9609375 C9.19208752 2.46989688 15.3089654 2.46171997 21.5 2.625 C22.70398438 2.66367188 23.90796875 2.70234375 25.1484375 2.7421875 C28.09881119 2.83585016 31.04918856 2.92157524 34 3 C34 3.33 34 3.66 34 4 C29.64011928 4.09890664 25.28083327 4.17148376 20.92016602 4.21972656 C19.43697739 4.23983759 17.95386801 4.26713074 16.47094727 4.30175781 C14.33850565 4.35030352 12.20711223 4.37297195 10.07421875 4.390625 C8.79119873 4.41157227 7.50817871 4.43251953 6.1862793 4.45410156 C3 4 3 4 1.05786133 1.97558594 C0.70876709 1.32364258 0.35967285 0.67169922 0 0 Z " fill="#E97154" transform="translate(55,83)"/>
<path d="M0 0 C0.33 0 0.66 0 1 0 C0.4618629 5.69051363 -0.1400133 11.34865884 -1 17 C-1.66 17 -2.32 17 -3 17 C-3.33 17.99 -3.66 18.98 -4 20 C-4 17.03 -4 14.06 -4 11 C-3.34 11 -2.68 11 -2 11 C-1.93941406 10.37351562 -1.87882812 9.74703125 -1.81640625 9.1015625 C-1.73261719 8.28429687 -1.64882812 7.46703125 -1.5625 6.625 C-1.48128906 5.81289062 -1.40007812 5.00078125 -1.31640625 4.1640625 C-1 2 -1 2 0 0 Z " fill="#EA5F5F" transform="translate(95,117)"/>
<path d="M0 0 C0.33 0.66 0.66 1.32 1 2 C2.65 2 4.3 2 6 2 C5.649375 2.61875 5.29875 3.2375 4.9375 3.875 C4.4734375 4.926875 4.4734375 4.926875 4 6 C4.33 6.66 4.66 7.32 5 8 C3.35 8 1.7 8 0 8 C0 5.36 0 2.72 0 0 Z " fill="#FD3530" transform="translate(91,137)"/>
<path d="M0 0 C3.3 0 6.6 0 10 0 C10 0.33 10 0.66 10 1 C9.15115234 1.16435547 9.15115234 1.16435547 8.28515625 1.33203125 C7.18494141 1.56986328 7.18494141 1.56986328 6.0625 1.8125 C5.33160156 1.96332031 4.60070312 2.11414063 3.84765625 2.26953125 C3.23792969 2.51058594 2.62820312 2.75164062 2 3 C1.67 3.99 1.34 4.98 1 6 C0.01 6 -0.98 6 -2 6 C-1.34 4.02 -0.68 2.04 0 0 Z " fill="#F43E38" transform="translate(108,109)"/>
<path d="M0 0 C2.31 0.33 4.62 0.66 7 1 C7 1.99 7 2.98 7 4 C4.69 3.67 2.38 3.34 0 3 C0 2.01 0 1.02 0 0 Z " fill="#FB5738" transform="translate(57,81)"/>
<path d="M0 0 C4.95 0 9.9 0 15 0 C14.67 0.99 14.34 1.98 14 3 C13.34 3 12.68 3 12 3 C12 2.34 12 1.68 12 1 C8.04 1 4.08 1 0 1 C0 0.67 0 0.34 0 0 Z " fill="#E18F67" transform="translate(159,79)"/>
<path d="M0 0 C0.99 0 1.98 0 3 0 C2.125 4.75 2.125 4.75 1 7 C0.34 7 -0.32 7 -1 7 C-1 5.68 -1 4.36 -1 3 C-0.34 3 0.32 3 1 3 C0.67 2.01 0.34 1.02 0 0 Z " fill="#F08060" transform="translate(144,109)"/>
<path d="M0 0 C0.33 0.66 0.66 1.32 1 2 C0.0625 4.125 0.0625 4.125 -1 6 C-0.34 6.33 0.32 6.66 1 7 C-0.65 7 -2.3 7 -4 7 C-2.92598892 4.08482708 -2.22189824 2.22189824 0 0 Z " fill="#E25B5D" transform="translate(107,109)"/>
<path d="M0 0 C0.66 0 1.32 0 2 0 C2.33 0.99 2.66 1.98 3 3 C1.6875 5.1875 1.6875 5.1875 0 7 C-0.66 7 -1.32 7 -2 7 C-1.67 5.68 -1.34 4.36 -1 3 C-0.34 3 0.32 3 1 3 C0.67 2.01 0.34 1.02 0 0 Z " fill="#F19F71" transform="translate(169,80)"/>
</svg>
